<?xml version="1.0" standalone="no"?>
<!DOCTYPE svg PUBLIC "-//W3C//DTD SVG 20010904//EN"
 "http://www.w3.org/TR/2001/REC-SVG-20010904/DTD/svg10.dtd">
<svg version="1.0" xmlns="http://www.w3.org/2000/svg"
 width="2283.000000pt" height="1146.000000pt" viewBox="0 0 2283.000000 1146.000000"
 preserveAspectRatio="xMidYMid meet">
<metadata>
Created by potrace 1.10, written by Peter Selinger 2001-2011
</metadata>
<g transform="translate(0.000000,1146.000000) scale(0.100000,-0.100000)"
fill="#5f56f7" stroke="none">
<path d="M5754 10605 c-2 -5 -3 -567 -2 -1248 l3 -1239 410 1 c226 0 413 1
418 1 4 0 7 8 7 18 0 10 7 27 15 38 8 10 15 26 15 35 0 17 83 99 100 99 5 0
17 -11 25 -24 14 -21 118 -106 131 -106 2 0 23 -12 47 -27 75 -48 230 -93 324
-93 67 0 213 26 261 46 18 8 42 14 52 14 11 0 20 3 20 8 0 4 24 18 53 31 46
22 125 80 164 121 44 48 83 96 83 104 0 4 13 25 28 45 16 20 31 45 35 56 3 11
15 45 27 75 12 30 26 74 31 98 4 23 13 51 19 61 5 11 10 40 10 64 0 24 6 64
14 89 21 70 22 464 2 513 -9 21 -16 54 -16 74 0 20 -7 45 -15 55 -8 11 -15 32
-15 46 0 14 -7 35 -15 46 -8 10 -15 26 -15 35 0 9 -7 22 -15 29 -8 7 -15 19
-15 27 0 17 -57 104 -101 153 -17 19 -36 42 -43 50 -41 54 -178 140 -286 180
-76 28 -314 28 -390 0 -19 -7 -53 -19 -75 -27 -22 -8 -47 -19 -55 -24 -8 -4
-35 -18 -60 -30 -52 -26 -171 -114 -183 -135 -4 -8 -17 -14 -29 -14 -19 0 -20
4 -15 53 5 38 10 589 7 702 0 7 -166 10 -476 10 -309 0 -478 -4 -480 -10z
m269 -82 c-24 -9 -13 -23 17 -23 30 0 41 14 18 23 -7 3 23 5 67 4 44 0 61 -2
38 -4 -24 -2 -43 -9 -43 -15 0 -7 18 -8 53 -4 58 7 54 7 122 2 28 -2 58 0 67
5 10 6 27 5 42 -2 19 -9 29 -9 39 -1 8 7 17 8 21 4 4 -4 27 -8 50 -8 24 -1 56
-8 72 -15 l29 -14 2 -243 c1 -134 4 -246 7 -249 3 -4 6 -19 6 -35 0 -37 14
-64 53 -105 34 -37 74 -43 117 -18 14 8 42 14 63 15 29 0 37 4 37 18 0 24 134
92 262 131 92 29 102 30 190 22 101 -10 129 -18 233 -67 27 -13 63 -43 102
-86 6 -7 32 -33 57 -57 25 -25 46 -50 46 -55 0 -6 16 -26 35 -45 27 -26 35
-42 35 -68 0 -23 7 -40 21 -52 24 -19 46 -73 59 -146 5 -27 14 -75 20 -105 6
-30 10 -131 10 -225 0 -143 -3 -180 -21 -235 -11 -36 -22 -87 -24 -115 -6 -71
-24 -131 -46 -151 -11 -9 -19 -30 -19 -45 0 -38 -19 -77 -42 -84 -10 -4 -18
-14 -18 -22 0 -21 -29 -53 -47 -53 -7 0 -18 -11 -23 -25 -5 -14 -23 -33 -38
-42 -16 -9 -34 -29 -40 -45 -8 -22 -17 -28 -40 -28 -17 0 -37 -6 -44 -12 -7
-7 -20 -19 -29 -26 -22 -17 -150 -49 -229 -57 -79 -8 -220 10 -278 36 -36 15
-42 22 -37 39 6 18 2 20 -33 20 -39 0 -62 16 -75 53 -5 13 -16 17 -39 16 -18
-1 -46 6 -63 15 -50 27 -103 21 -160 -18 -28 -19 -65 -42 -84 -52 -19 -10 -36
-25 -38 -33 -9 -36 -50 -41 -314 -41 -265 0 -319 7 -319 39 0 9 -5 22 -11 28
-9 9 -11 296 -10 1109 1 604 5 1102 7 1106 3 4 18 8 35 8 16 0 37 9 47 19 11
13 30 19 57 19 22 0 34 -2 28 -5z"/>
<path d="M6830 9611 c-19 -4 -46 -13 -60 -20 -34 -18 -120 -102 -120 -118 0
-7 -8 -27 -18 -45 -11 -18 -22 -62 -26 -98 -4 -36 -14 -91 -22 -123 -30 -116
-9 -408 37 -512 18 -42 98 -155 110 -155 5 0 19 -10 31 -22 19 -19 36 -23 93
-26 84 -4 112 9 177 84 63 72 117 223 119 332 0 26 3 41 6 35 2 -7 9 -13 15
-13 14 0 3 173 -12 178 -5 2 -10 13 -10 25 0 18 2 19 10 7 7 -12 10 -12 16 4
5 13 1 24 -13 35 -15 11 -25 38 -34 91 -7 41 -25 110 -41 152 -24 63 -39 86
-81 124 -51 46 -103 75 -129 73 -7 -1 -29 -4 -48 -8z m110 -107 c22 -20 40
-44 40 -54 0 -10 7 -23 15 -30 8 -7 15 -21 15 -32 0 -11 6 -32 14 -46 24 -47
39 -162 43 -334 4 -137 2 -172 -11 -197 -9 -16 -16 -41 -16 -54 0 -14 -7 -30
-15 -37 -8 -7 -15 -20 -15 -30 0 -10 -6 -23 -14 -29 -8 -7 -17 -22 -20 -34 -6
-26 -79 -67 -118 -67 -26 0 -69 28 -100 65 -29 34 -78 143 -78 173 0 15 -7 38
-16 50 -29 41 -8 355 33 502 21 75 40 108 84 153 31 31 44 37 78 37 33 0 49
-7 81 -36z"/>
<path d="M7160 8879 c0 -11 5 -17 10 -14 6 3 10 13 10 21 0 8 -4 14 -10 14 -5
0 -10 -9 -10 -21z"/>
<path d="M2056 10541 c-7 -11 -7 -1018 1 -1409 4 -264 3 -297 -13 -345 -23
-67 -48 -95 -97 -108 -50 -13 -100 -4 -132 24 -20 17 -26 34 -29 73 -6 83 -25
123 -60 129 -17 3 -170 7 -341 9 -170 3 -337 8 -370 12 -57 6 -61 5 -71 -17
-12 -27 0 -229 17 -294 6 -22 13 -54 16 -72 3 -18 11 -38 19 -44 8 -6 14 -15
14 -20 0 -36 167 -239 196 -239 7 0 21 -11 32 -25 11 -13 30 -29 43 -35 30
-14 63 -33 80 -47 8 -6 28 -13 44 -16 28 -4 43 -9 128 -38 17 -7 57 -15 87
-19 30 -4 87 -13 126 -19 86 -15 360 -10 459 8 82 15 167 37 213 57 18 8 40
14 48 14 9 0 28 6 42 14 15 7 45 22 67 32 96 45 231 151 274 214 13 19 27 36
32 38 4 2 17 24 29 50 12 26 26 54 31 62 5 8 12 22 15 30 65 169 64 151 69
1040 3 443 6 837 7 875 l3 70 -487 3 c-276 1 -489 -2 -492 -7z m834 -106 c20
-11 32 -26 39 -53 10 -42 7 -1407 -4 -1547 -4 -60 -14 -103 -27 -130 -12 -22
-25 -62 -29 -89 -5 -27 -17 -59 -29 -71 -11 -12 -20 -26 -20 -32 0 -6 -10 -24
-22 -40 -13 -15 -28 -37 -34 -48 -6 -11 -24 -22 -40 -25 -18 -3 -30 -12 -32
-25 -6 -28 -21 -45 -41 -45 -9 0 -36 -17 -59 -37 -35 -31 -50 -37 -79 -34 -31
2 -34 0 -29 -17 5 -15 2 -22 -11 -25 -10 -3 -63 -19 -118 -36 -97 -29 -276
-58 -293 -47 -5 3 -37 1 -73 -4 -116 -17 -350 11 -489 58 -82 28 -100 38 -97
55 1 7 -15 13 -38 15 -41 4 -75 25 -75 49 0 7 -5 13 -11 13 -5 0 -44 35 -85
77 -61 64 -74 83 -74 110 0 24 -7 37 -29 52 -26 19 -30 30 -41 105 -14 97 -10
117 28 142 24 16 52 18 280 16 150 -1 261 -6 273 -12 10 -6 26 -24 34 -40 9
-17 22 -30 29 -30 7 0 25 -18 40 -40 14 -22 44 -52 66 -66 22 -15 40 -31 40
-37 0 -6 26 -8 69 -5 59 4 74 10 111 39 68 55 106 115 116 184 4 33 6 179 3
325 -2 146 -4 486 -3 755 0 514 2 535 44 535 10 0 21 4 25 9 3 6 144 10 330
10 273 1 330 -1 355 -14z"/>
<path d="M4130 10088 c-19 -5 -60 -13 -90 -17 -30 -4 -65 -12 -77 -19 -12 -7
-30 -12 -41 -12 -11 0 -25 -7 -32 -15 -7 -8 -21 -15 -31 -15 -18 0 -135 -49
-169 -71 -8 -5 -22 -12 -30 -16 -59 -26 -249 -203 -289 -268 -10 -17 -25 -36
-34 -44 -10 -7 -17 -22 -17 -32 0 -10 -4 -20 -9 -23 -10 -6 -37 -64 -61 -126
-24 -66 -52 -303 -40 -355 4 -22 11 -80 15 -130 14 -189 96 -390 207 -506 52
-54 187 -156 243 -184 22 -11 58 -32 79 -47 21 -16 51 -28 66 -28 15 0 33 -7
40 -15 7 -8 22 -15 34 -15 12 0 27 -5 33 -11 11 -11 108 -36 198 -50 243 -39
410 -35 600 12 22 6 57 14 78 18 21 5 44 14 50 20 6 6 23 11 38 11 15 0 32 7
39 15 7 8 23 15 36 15 13 0 45 13 71 28 26 16 55 31 63 35 69 32 196 133 270
215 80 88 110 128 110 145 0 8 7 20 15 27 8 7 15 18 15 25 0 8 6 26 14 42 55
112 92 414 65 533 -6 25 -14 70 -19 100 -5 30 -15 78 -23 105 -18 59 -80 181
-108 211 -10 11 -19 25 -19 32 0 14 -138 152 -153 152 -7 0 -25 14 -41 30 -16
17 -35 30 -41 30 -7 0 -18 7 -25 15 -7 8 -18 15 -26 15 -7 0 -36 14 -64 30
-28 17 -55 30 -60 30 -5 0 -32 14 -60 30 -28 17 -60 30 -71 30 -12 0 -33 6
-47 14 -64 32 -194 46 -433 45 -129 -1 -250 -5 -269 -11z m529 -87 c13 -7 40
-14 60 -16 20 -1 74 -17 121 -35 47 -17 100 -38 117 -44 18 -7 43 -22 55 -33
13 -11 36 -23 52 -27 16 -4 41 -20 57 -37 15 -16 34 -29 43 -29 27 0 216 -200
216 -229 0 -6 5 -11 10 -11 6 0 10 -8 10 -18 0 -11 9 -27 20 -37 24 -21 33
-52 66 -205 33 -157 29 -254 -15 -435 -26 -106 -31 -121 -48 -135 -10 -8 -25
-31 -32 -50 -8 -19 -22 -42 -31 -51 -10 -8 -25 -30 -34 -47 -9 -18 -23 -32
-31 -32 -8 0 -21 -12 -29 -27 -8 -16 -34 -44 -57 -62 -24 -19 -48 -41 -52 -48
-4 -7 -16 -13 -27 -13 -10 0 -34 -13 -52 -30 -22 -20 -43 -30 -65 -30 -23 0
-36 -6 -44 -21 -6 -11 -30 -30 -54 -40 -37 -17 -48 -18 -65 -7 -19 12 -24 10
-48 -19 -25 -30 -36 -34 -132 -50 -138 -24 -383 -23 -540 1 -156 24 -153 23
-175 44 -12 10 -38 21 -59 25 -22 3 -62 21 -90 40 -28 19 -63 37 -77 40 -15 4
-29 16 -32 27 -5 20 -11 24 -59 34 -16 4 -28 13 -28 21 0 8 -18 26 -39 41 -21
14 -41 34 -44 45 -3 10 -12 19 -20 19 -18 0 -89 91 -113 145 -37 86 -44 114
-50 232 -4 68 -11 123 -15 123 -5 0 -9 -7 -9 -15 0 -28 -19 -15 -25 18 -9 48
1 221 13 243 11 18 11 18 12 -3 0 -12 4 -24 9 -27 4 -3 11 43 15 102 8 112 23
153 83 225 12 16 23 34 23 40 0 7 16 21 35 31 19 11 35 23 35 28 0 14 108 118
123 118 7 0 23 14 35 30 19 25 30 30 62 30 22 0 40 5 40 10 0 6 -4 10 -10 10
-5 0 -10 5 -10 10 0 6 8 10 18 10 10 0 28 7 40 16 28 20 182 73 231 80 20 3
43 8 51 11 76 29 511 40 559 14z"/>
<path d="M4348 9606 c-26 -12 -56 -34 -68 -47 -31 -36 -80 -135 -80 -162 0
-12 -7 -47 -16 -77 -21 -75 -28 -384 -9 -443 7 -23 21 -77 30 -119 12 -53 28
-93 51 -125 34 -48 124 -112 158 -113 63 -1 163 63 195 124 8 14 23 26 33 26
15 0 18 8 18 53 0 28 5 81 11 117 10 66 15 341 6 395 -3 17 -8 68 -12 114 -6
71 -12 91 -36 124 -16 22 -29 45 -29 51 0 7 -17 29 -38 49 -62 61 -135 72
-214 33z m148 -68 c34 -38 54 -76 54 -101 0 -14 7 -30 15 -37 10 -8 15 -31 15
-69 0 -32 7 -80 15 -107 15 -52 14 -321 -2 -346 -4 -7 -11 -38 -14 -68 -15
-118 -72 -206 -141 -217 -35 -5 -41 -2 -82 42 -25 26 -48 60 -51 76 -4 16 -11
31 -16 34 -5 4 -9 21 -9 40 0 19 -7 60 -15 92 -21 78 -21 331 0 399 8 27 15
61 15 76 0 46 30 121 67 166 32 39 38 42 82 42 37 0 52 -5 67 -22z"/>
<path d="M9678 7849 c-6 -4 -9 -100 -9 -260 4 -800 6 -1834 2 -2029 l-3 -225
517 -3 517 -2 -3 362 c-3 323 -1 368 14 411 9 26 17 54 17 62 0 20 46 19 54
-1 3 -9 6 -31 6 -50 0 -18 6 -51 13 -71 23 -62 45 -136 52 -170 4 -18 11 -35
16 -38 5 -4 9 -19 9 -35 0 -16 6 -41 14 -57 15 -30 33 -80 46 -128 11 -39 29
-91 46 -133 8 -18 14 -40 14 -50 0 -9 7 -36 16 -59 l17 -43 553 0 c571 0 579
1 543 37 -14 14 -26 36 -74 133 -20 41 -40 82 -45 90 -5 8 -19 35 -30 60 -12
25 -26 52 -31 60 -5 8 -12 22 -15 30 -3 8 -10 22 -15 30 -5 8 -12 22 -15 30
-3 8 -10 22 -15 30 -5 8 -12 22 -15 30 -10 26 -37 84 -45 100 -5 8 -25 49 -44
90 -20 41 -41 82 -46 90 -5 8 -12 22 -15 30 -3 8 -19 42 -35 75 -16 33 -29 65
-29 71 0 7 -7 17 -15 24 -8 7 -15 21 -15 31 0 9 -7 24 -15 32 -25 26 -29 65
-9 95 28 41 42 65 53 90 6 12 29 50 51 83 22 33 40 64 40 68 0 4 20 38 45 75
25 38 45 71 45 74 0 2 14 24 30 49 17 24 30 47 30 50 0 3 13 22 28 42 16 20
32 43 35 51 4 8 16 29 26 45 33 50 64 116 58 121 -3 3 -245 6 -539 5 l-533 0
-14 -28 c-8 -15 -17 -41 -22 -57 -11 -44 -29 -97 -45 -129 -8 -16 -14 -37 -14
-47 0 -11 -6 -34 -14 -52 -7 -18 -21 -58 -31 -88 -9 -30 -23 -69 -31 -87 -8
-17 -14 -40 -14 -52 0 -11 -6 -35 -14 -53 -31 -74 -48 -198 -27 -198 11 0 72
117 90 172 7 21 23 46 37 57 16 12 24 29 24 49 0 30 29 133 40 142 3 3 12 32
20 65 17 76 27 96 44 89 10 -4 16 6 21 35 8 47 20 59 66 66 37 5 634 5 712 0
63 -4 78 -18 43 -40 -18 -12 -26 -26 -26 -47 0 -20 -11 -40 -35 -65 -19 -20
-35 -46 -35 -58 0 -12 -13 -34 -29 -49 -16 -16 -32 -40 -36 -54 -3 -14 -17
-36 -31 -49 -13 -12 -24 -33 -24 -47 0 -16 -14 -39 -35 -60 -21 -21 -32 -41
-29 -50 3 -9 -5 -21 -21 -32 -26 -17 -26 -17 -23 -138 3 -106 5 -121 19 -118
17 2 31 -30 34 -75 0 -12 11 -30 22 -40 12 -10 29 -40 38 -67 9 -27 25 -62 36
-77 11 -16 23 -45 26 -64 3 -20 14 -40 23 -45 22 -12 40 -61 40 -107 0 -29 3
-33 19 -28 16 5 22 -1 30 -32 6 -21 11 -46 11 -56 0 -10 7 -20 15 -23 9 -4 14
-12 13 -20 -2 -7 4 -19 14 -26 20 -16 88 -171 88 -202 0 -32 -34 -36 -275 -36
-104 0 -206 0 -225 -1 -116 -4 -279 -2 -300 4 -54 16 -116 143 -127 264 -5 53
-9 63 -22 58 -13 -4 -20 6 -30 43 -7 26 -27 87 -43 137 -19 58 -28 101 -25
122 6 36 -1 47 -19 32 -10 -8 -19 1 -37 38 -25 49 -69 83 -105 83 -26 0 -93
-81 -116 -139 -14 -37 -17 -80 -17 -275 0 -127 -3 -253 -6 -279 -4 -41 -8 -47
-23 -42 -14 4 -23 -2 -35 -24 l-15 -30 -288 4 c-158 2 -296 4 -307 5 -11 0
-37 -2 -57 -6 -34 -6 -39 -4 -48 20 -8 21 -14 25 -33 20 -18 -4 -26 -1 -31 12
-8 20 -8 2212 0 2225 3 5 16 9 28 9 15 0 30 10 41 26 16 24 21 26 64 19 25 -4
53 -7 61 -6 47 5 548 9 561 5 9 -3 19 -13 22 -24 3 -11 17 -24 31 -30 l26 -9
-2 -268 c-3 -426 2 -629 18 -763 27 -221 29 -226 57 -137 15 46 17 126 17 687
l1 635 -501 5 c-276 3 -506 2 -512 -1z"/>
<path d="M2835 7740 c-110 -3 -578 -7 -1039 -8 -462 -1 -841 -4 -843 -6 -2 -2
-4 -143 -3 -312 0 -281 2 -310 18 -322 13 -11 70 -13 262 -11 135 2 255 0 267
-4 18 -7 22 -18 28 -75 4 -37 11 -93 16 -124 7 -39 6 -143 -1 -310 -7 -139
-15 -471 -19 -738 -7 -435 -6 -487 8 -509 l16 -23 320 1 c176 0 386 -4 467 -9
81 -5 155 -7 164 -3 15 6 16 76 13 912 l-4 906 165 -2 c91 -2 169 -3 174 -3 5
0 6 -14 2 -30 -3 -17 -6 -414 -6 -883 l-1 -852 570 -3 570 -2 4 347 c3 348 6
386 42 468 40 92 55 115 111 170 58 57 90 75 174 94 19 5 48 14 63 20 33 13
97 14 149 2 52 -12 58 -1 48 94 -11 109 -12 580 -1 685 5 58 5 89 -3 99 -23
29 -255 -2 -338 -45 -14 -8 -31 -14 -37 -14 -5 0 -30 -13 -54 -30 -25 -16 -48
-30 -52 -30 -17 0 -102 -75 -137 -122 -57 -75 -108 -203 -108 -269 0 -25 -46
-45 -66 -28 -20 16 -34 75 -34 142 0 32 -7 86 -15 120 -8 34 -18 92 -21 130
-6 68 -24 103 -50 93 -15 -6 -563 -10 -568 -5 -2 2 0 108 4 234 7 222 7 231
-12 248 -11 9 -25 16 -32 15 -6 -1 -101 -5 -211 -8z m-200 -107 c6 -17 7 -17
21 2 13 17 17 18 36 6 16 -10 23 -10 26 -2 4 13 62 15 62 2 0 -10 70 -21 84
-13 4 2 2 8 -5 13 -9 6 1 9 28 9 33 0 41 -3 37 -14 -4 -11 6 -18 34 -25 l39
-11 5 -143 c6 -169 21 -214 81 -258 22 -16 46 -29 53 -29 7 0 14 -5 16 -12 6
-16 209 -24 246 -9 20 9 36 9 56 1 17 -6 34 -7 44 -1 12 6 30 2 60 -13 49 -25
82 -78 82 -132 0 -19 7 -59 16 -87 8 -29 20 -69 26 -90 15 -49 62 -97 102
-104 51 -8 112 45 144 125 17 43 32 66 47 72 13 5 28 23 34 42 20 59 119 153
182 173 13 5 30 16 36 25 7 10 29 21 50 24 21 4 52 12 69 18 28 10 35 8 66
-15 19 -15 39 -27 45 -27 16 0 19 -57 17 -265 -3 -309 -4 -321 -13 -306 -11
18 -31 5 -31 -20 0 -45 -82 -81 -97 -43 -5 14 -7 15 -15 1 -9 -17 -78 -52
-118 -61 -14 -3 -34 -12 -45 -21 -11 -8 -38 -29 -60 -46 -22 -17 -51 -47 -65
-67 -14 -21 -35 -47 -47 -60 -13 -12 -23 -34 -23 -48 0 -14 -7 -38 -15 -52
-37 -68 -47 -144 -51 -372 -6 -290 -10 -330 -33 -330 -10 0 -25 -9 -32 -21
-14 -21 -20 -21 -399 -22 -212 -1 -405 2 -429 7 -76 16 -71 -57 -72 1041 0
579 -2 606 -56 657 -37 36 -72 48 -172 59 -123 14 -178 1 -230 -56 -23 -25
-41 -49 -41 -54 0 -5 -8 -11 -17 -13 -16 -3 -17 -61 -18 -818 -1 -575 -5 -823
-13 -842 l-11 -27 -253 -2 c-281 -2 -439 1 -450 8 -5 2 -8 15 -8 28 0 17 -8
26 -30 34 l-30 10 0 128 c1 70 7 315 14 543 7 228 12 503 11 610 -3 269 -21
337 -103 394 -57 39 -92 46 -252 47 -80 1 -158 4 -173 8 -44 9 -53 51 -52 233
0 132 3 160 16 174 18 18 170 33 294 28 241 -8 599 -2 629 11 11 5 26 3 37 -3
23 -14 325 -17 334 -3 3 5 -3 12 -12 14 -10 3 50 5 133 6 136 1 153 -1 159
-16z"/>
<path d="M2390 7630 c0 -5 7 -10 15 -10 8 0 15 5 15 10 0 6 -7 10 -15 10 -8 0
-15 -4 -15 -10z"/>
<path d="M2480 7630 c0 -5 7 -10 15 -10 8 0 15 5 15 10 0 6 -7 10 -15 10 -8 0
-15 -4 -15 -10z"/>
<path d="M2568 7628 c9 -9 15 -9 24 0 9 9 7 12 -12 12 -19 0 -21 -3 -12 -12z"/>
<path d="M5765 7310 c-77 -3 -153 -11 -168 -18 -16 -7 -45 -12 -65 -12 -20 -1
-48 -7 -62 -15 -14 -8 -39 -14 -55 -15 -17 0 -39 -6 -50 -14 -11 -7 -31 -16
-45 -19 -41 -9 -100 -33 -112 -45 -7 -7 -20 -12 -29 -12 -24 0 -136 -84 -190
-142 -40 -44 -59 -76 -125 -211 -8 -16 -14 -41 -14 -55 -1 -15 -7 -38 -15 -52
-8 -14 -14 -43 -15 -65 l0 -40 466 2 c257 1 469 5 472 8 4 3 7 20 8 38 6 150
43 215 126 224 81 9 110 -2 152 -57 l39 -51 1 -111 0 -111 -52 -48 c-36 -33
-62 -49 -80 -49 -15 -1 -38 -7 -52 -15 -15 -9 -54 -14 -101 -15 -41 0 -100 -4
-130 -10 -30 -5 -119 -14 -199 -20 -210 -15 -330 -30 -368 -46 -18 -8 -43 -14
-55 -14 -13 0 -32 -7 -43 -15 -10 -8 -24 -15 -31 -15 -28 0 -118 -73 -159
-128 -58 -79 -76 -140 -81 -288 -4 -95 -1 -129 11 -159 9 -20 16 -45 16 -54 0
-35 102 -171 173 -232 40 -34 79 -63 87 -66 8 -3 43 -18 78 -34 34 -16 75 -29
90 -29 15 0 54 -7 85 -15 69 -18 145 -19 184 -4 15 6 69 15 118 19 54 4 112
16 145 29 30 13 64 25 75 28 20 5 125 52 180 80 33 17 105 92 105 109 0 11 42
54 52 54 4 0 10 -26 14 -57 3 -32 10 -62 14 -68 4 -5 10 -21 13 -35 6 -30 31
-98 38 -104 3 -3 203 -6 444 -7 377 -1 440 1 443 13 2 8 -4 21 -13 28 -8 7
-15 21 -15 32 0 10 -7 32 -15 47 -12 24 -15 103 -18 442 -4 414 -15 607 -42
729 -9 36 -15 75 -15 87 0 12 -7 39 -17 60 -74 170 -132 256 -231 340 -55 48
-231 143 -263 143 -8 0 -20 5 -26 11 -18 18 -264 49 -408 52 -71 1 -193 0
-270 -3z m315 -95 c0 -18 12 -19 27 -4 8 8 25 8 63 0 28 -6 73 -11 100 -11 64
0 140 -20 140 -37 0 -16 44 -35 63 -27 17 6 62 -10 107 -40 19 -12 52 -34 72
-47 23 -14 44 -39 53 -61 8 -21 22 -38 30 -38 9 0 23 -16 31 -35 8 -19 21 -35
28 -35 18 0 57 -80 54 -111 -2 -15 2 -24 12 -24 21 0 52 -128 44 -182 -4 -30
-3 -43 6 -43 7 0 9 -8 5 -21 -4 -12 -2 -24 4 -28 17 -11 22 -102 27 -557 l6
-431 -42 -33 c-40 -32 -44 -33 -84 -23 -22 7 -45 8 -51 4 -5 -4 -102 -8 -215
-9 -252 -3 -268 3 -340 110 -25 37 -55 75 -67 83 -29 21 -84 11 -123 -21 -16
-14 -41 -24 -58 -24 -24 0 -34 -7 -51 -35 -19 -33 -23 -35 -73 -35 -47 0 -50
-1 -32 -14 10 -8 16 -17 12 -21 -7 -7 -63 -23 -113 -32 -16 -3 -37 -11 -45
-19 -20 -17 -279 -46 -365 -41 -39 3 -70 10 -75 17 -5 8 -19 11 -39 7 -29 -6
-58 12 -33 21 26 8 10 21 -20 16 -34 -4 -103 23 -103 41 0 19 -16 35 -36 35
-13 0 -24 10 -30 30 -6 16 -19 32 -30 35 -11 4 -27 19 -36 33 -9 15 -25 37
-36 49 -10 12 -20 36 -22 55 -2 18 -8 57 -14 85 -17 85 3 213 41 262 10 13 18
30 18 37 0 7 27 32 60 54 33 22 60 44 60 48 0 15 42 32 107 42 37 6 91 17 118
24 57 16 240 34 429 42 71 2 137 9 147 14 10 6 36 10 58 10 38 0 41 -2 41 -27
0 -37 -7 -45 -65 -78 -55 -31 -95 -64 -95 -77 0 -5 -11 -24 -25 -43 -52 -67
-46 -213 12 -297 36 -54 110 -108 146 -108 17 0 39 -8 50 -17 18 -17 19 -17
31 -1 7 10 16 15 19 12 9 -9 79 18 106 41 43 37 81 97 81 129 0 41 10 76 21
76 5 0 9 -13 9 -29 0 -17 5 -33 10 -36 7 -5 10 22 8 82 -2 58 -7 87 -14 86 -7
-1 -14 20 -18 52 -8 70 -37 137 -72 165 -26 20 -36 22 -106 16 -47 -4 -78 -3
-78 3 0 5 6 11 13 14 8 3 6 9 -8 20 -16 12 -17 18 -8 28 9 9 19 8 46 -5 19 -9
44 -16 56 -16 25 0 28 25 5 38 -14 8 -8 17 36 58 28 27 60 65 70 84 43 83 34
254 -18 330 -34 51 -81 89 -132 107 -44 16 -127 10 -167 -11 -33 -17 -123
-113 -123 -132 0 -6 -14 -30 -30 -53 l-31 -42 -330 2 c-220 1 -332 5 -336 13
-4 5 -6 32 -6 59 1 42 5 53 32 77 17 16 31 38 31 50 0 13 13 28 34 41 19 11
37 31 40 44 4 15 21 32 45 45 22 11 43 24 46 30 16 26 142 74 203 78 45 3 62
8 62 18 0 22 36 31 188 51 131 16 140 16 156 0 18 -17 46 -11 61 13 3 6 52 10
111 10 86 0 104 -3 104 -15z m30 -1167 c-1 -174 -2 -184 -23 -209 -35 -41 -68
-58 -130 -65 -49 -6 -61 -4 -89 16 -73 50 -108 138 -94 233 8 53 54 105 116
131 25 10 60 24 78 32 18 8 42 14 53 14 11 0 22 7 25 15 4 9 19 15 35 15 l29
0 0 -182z"/>
<path d="M8235 7311 c-55 -4 -106 -10 -113 -15 -7 -4 -42 -11 -80 -15 -91 -12
-179 -47 -332 -133 -8 -4 -24 -13 -35 -18 -11 -6 -33 -19 -50 -30 -16 -11 -39
-24 -50 -29 -44 -20 -163 -147 -212 -226 -31 -49 -83 -159 -83 -174 0 -10 -7
-26 -15 -37 -8 -10 -15 -31 -15 -46 0 -15 -6 -42 -14 -60 -23 -54 -39 -197
-32 -289 10 -133 21 -213 30 -228 5 -8 13 -31 17 -50 15 -73 59 -179 95 -228
13 -17 24 -35 24 -40 0 -32 203 -213 271 -242 13 -6 31 -15 39 -20 60 -35 185
-77 300 -100 19 -4 45 -13 57 -19 12 -7 44 -12 71 -12 26 0 71 -6 98 -14 54
-16 388 -18 412 -2 8 5 39 12 70 16 73 9 150 29 184 46 14 8 38 14 51 14 14 0
28 4 31 9 7 11 88 51 103 51 5 0 30 11 54 25 24 14 51 28 59 32 8 3 31 19 51
35 20 15 41 28 46 28 11 0 143 133 143 144 0 4 14 25 30 46 17 21 30 42 30 47
0 5 5 14 12 21 31 31 119 336 104 361 -5 8 -152 11 -525 11 l-519 0 -5 -62
c-11 -120 -39 -184 -96 -219 -45 -27 -63 -24 -102 18 -51 57 -68 99 -74 183
-3 41 -8 102 -11 135 -14 140 22 388 69 477 35 68 102 88 133 41 46 -69 84
-187 84 -261 l0 -42 518 -2 c284 -2 521 0 526 4 6 5 3 22 -7 43 -9 20 -17 48
-17 63 0 15 -7 40 -15 56 -8 15 -15 34 -15 42 0 7 -7 30 -16 51 -55 129 -50
118 -89 175 -43 62 -134 156 -175 181 -19 11 -38 25 -41 29 -3 5 -21 16 -40
26 -19 10 -47 26 -64 34 -16 9 -48 24 -70 33 -22 10 -53 24 -68 31 -16 8 -36
14 -45 14 -9 0 -26 7 -36 15 -11 8 -32 15 -46 15 -14 0 -35 7 -46 15 -10 8
-31 15 -45 15 -15 0 -43 7 -63 15 -44 18 -295 27 -451 16z m330 -92 c17 -6 56
-13 88 -15 32 -2 66 -8 77 -14 10 -5 28 -10 40 -10 13 0 24 -8 27 -20 4 -17
14 -20 54 -20 73 0 242 -84 323 -160 127 -119 174 -174 181 -206 5 -28 10 -34
25 -29 14 5 22 -3 35 -39 11 -29 15 -56 11 -73 -4 -15 -10 -43 -13 -61 -3 -18
-9 -35 -14 -37 -4 -3 -151 -5 -326 -4 -175 1 -337 1 -360 0 -35 -1 -45 3 -62
28 -12 16 -24 51 -28 77 -5 42 -7 45 -19 29 -17 -23 -18 -21 -33 36 -9 32 -20
50 -37 58 -13 6 -24 15 -24 21 0 18 -63 50 -98 50 -47 0 -92 -22 -134 -66 -34
-37 -78 -129 -78 -166 0 -9 -7 -24 -17 -33 -14 -15 -17 -52 -19 -297 -2 -236
-1 -279 11 -274 9 3 25 -13 44 -47 16 -29 48 -70 71 -92 39 -38 42 -39 106
-37 55 1 74 7 113 32 29 20 50 43 57 62 6 18 19 36 30 42 28 16 34 27 34 63 0
56 8 58 395 61 192 2 360 1 372 -3 35 -8 63 -45 63 -81 0 -18 -5 -36 -12 -40
-8 -5 -9 3 -5 29 4 28 2 37 -8 37 -23 0 -25 -15 -9 -58 16 -39 15 -41 -11 -86
-15 -25 -30 -46 -34 -46 -3 0 -17 -21 -30 -47 -14 -30 -48 -69 -87 -103 -36
-30 -79 -70 -96 -87 -18 -19 -41 -33 -54 -33 -13 0 -28 -8 -33 -18 -12 -23
-95 -56 -117 -48 -21 8 -40 -4 -23 -15 17 -10 -70 -49 -110 -49 -15 0 -31 -4
-36 -9 -18 -17 -164 -42 -294 -50 -129 -7 -406 10 -446 28 -11 5 -40 14 -65
21 -25 6 -65 18 -90 26 -25 8 -53 14 -63 14 -13 0 -17 5 -12 19 5 16 -1 19
-51 23 -45 4 -62 10 -78 30 -12 13 -35 30 -53 37 -18 7 -44 28 -58 47 -14 19
-32 34 -39 34 -13 0 -38 31 -61 75 -6 11 -16 20 -24 20 -18 0 -40 44 -41 83 0
26 -5 35 -20 39 -26 7 -50 52 -50 93 0 16 -4 30 -10 30 -5 0 -10 8 -10 19 0
10 -7 35 -15 54 -10 24 -16 82 -19 174 -4 151 5 237 28 262 8 9 18 37 21 61
10 66 37 130 55 127 10 -1 16 12 21 46 8 51 23 77 45 77 8 0 14 4 14 10 0 5
15 27 34 47 18 21 38 48 45 61 6 12 20 22 31 22 10 0 28 14 40 30 12 17 40 40
63 52 23 11 44 24 47 28 12 18 138 73 179 79 30 4 46 11 46 20 0 20 90 41 198
46 48 2 94 8 102 13 25 14 266 15 300 1z"/>
</g>
</svg>
